<?xml version="1.0" standalone="no"?>
<!DOCTYPE svg PUBLIC "-//W3C//DTD SVG 20010904//EN" "http://www.w3.org/TR/2001/REC-SVG-20010904/DTD/svg10.dtd">
<svg version="1.0" xmlns="http://www.w3.org/2000/svg" width="200.000000pt" height="200.000000pt"
  viewBox="0 0 200.000000 200.000000" preserveAspectRatio="xMidYMid meet">

  <g transform="translate(0.000000,200.000000) scale(0.100000,-0.100000)" fill="#ffffff" stroke="none">
    <path d="M940 1972 c0 -39 -27 -74 -53 -70 -18 2 -45 40 -63 86 -1 1 -10 -1
-20 -5 -14 -6 -19 -18 -19 -47 0 -29 -6 -42 -22 -53 -21 -14 -25 -13 -51 14
-16 15 -31 34 -33 41 -3 8 -11 10 -23 6 -14 -5 -17 -14 -12 -35 14 -74 -40
-105 -86 -50 -19 22 -29 26 -41 19 -13 -7 -15 -18 -10 -53 10 -74 -22 -95 -76
-50 -25 22 -33 24 -49 14 -19 -12 -19 -14 -4 -46 29 -61 -23 -96 -79 -54 -28
21 -28 21 -39 1 -8 -15 -7 -26 5 -44 35 -53 0 -100 -57 -78 -28 10 -35 10 -45
-4 -10 -14 -8 -22 12 -46 31 -37 31 -53 0 -74 -19 -12 -31 -14 -54 -6 -25 9
-30 7 -39 -13 -9 -20 -8 -25 7 -30 14 -4 41 -43 41 -60 0 -15 -37 -35 -65 -35
-46 0 -53 -30 -14 -59 50 -37 31 -91 -30 -91 -28 0 -29 -46 -2 -55 10 -3 26
-14 36 -25 16 -18 17 -21 1 -45 -9 -14 -25 -25 -36 -25 -16 0 -20 -7 -20 -30
0 -22 5 -30 18 -30 25 0 56 -35 49 -55 -4 -8 -19 -23 -34 -32 -38 -25 -34 -63
7 -63 28 0 60 -22 60 -42 0 -5 -13 -22 -28 -36 -35 -34 -31 -62 8 -62 16 0 35
-3 44 -6 23 -9 20 -54 -5 -80 -17 -19 -19 -25 -8 -42 10 -16 17 -18 36 -11 35
13 63 -5 63 -40 0 -16 -7 -34 -15 -41 -11 -9 -12 -17 -5 -31 9 -15 18 -18 54
-13 38 6 46 4 55 -15 9 -16 8 -27 -3 -50 -14 -26 -14 -30 2 -44 15 -13 20 -14
36 -1 26 18 60 18 76 -1 10 -12 11 -24 2 -51 -9 -30 -8 -36 9 -44 15 -8 26 -6
49 12 42 31 65 16 65 -41 0 -51 25 -64 59 -32 12 12 29 21 38 21 22 0 48 -33
48 -62 0 -39 27 -43 60 -8 15 16 33 30 38 30 18 0 40 -28 47 -60 5 -23 12 -30
31 -30 14 0 24 6 24 14 0 8 8 24 19 37 16 21 22 22 45 11 17 -8 29 -22 32 -42
9 -44 46 -42 62 4 7 19 20 37 28 40 16 6 54 -9 54 -22 0 -4 7 -15 15 -25 20
-28 55 -14 55 22 0 27 26 61 47 61 6 0 23 -14 37 -31 34 -40 62 -36 58 8 -4
45 29 78 61 62 12 -7 28 -21 35 -31 23 -32 47 -8 43 45 -4 66 34 82 85 36 17
-16 23 -17 38 -6 15 11 16 17 7 35 -23 44 -8 92 30 92 9 0 28 -9 41 -20 24
-18 26 -18 41 -2 14 15 14 19 -4 41 -10 13 -19 31 -19 40 0 38 49 54 91 29 17
-11 22 -10 34 6 13 17 12 22 -10 42 -52 48 -19 102 49 83 21 -6 32 -5 38 4 12
18 10 21 -22 52 -51 49 -32 90 40 83 27 -2 41 1 45 10 9 23 6 27 -26 41 -71
31 -57 96 20 96 33 0 40 3 44 21 3 18 -3 24 -34 33 -40 12 -63 39 -53 64 6 17
47 37 74 37 15 0 20 7 20 25 0 20 -5 25 -24 25 -32 0 -79 40 -71 61 7 18 56
49 79 49 17 0 21 17 7 38 -5 9 -17 11 -35 6 -32 -8 -76 18 -76 44 0 23 40 62
63 62 18 0 21 9 11 34 -5 12 -16 14 -50 9 -48 -6 -74 7 -74 39 0 20 36 62 60
70 10 3 10 9 1 25 -10 20 -13 21 -39 7 -15 -7 -37 -14 -49 -14 -20 0 -53 23
-53 38 0 14 40 72 50 72 13 0 13 23 -1 37 -9 9 -21 7 -48 -8 -43 -23 -55 -24
-75 -3 -22 21 -20 35 8 77 22 32 23 36 8 51 -15 14 -18 14 -42 -8 -35 -33 -64
-40 -84 -21 -21 21 -20 43 3 82 l20 31 -24 16 c-22 15 -24 14 -30 -5 -4 -11
-22 -27 -40 -36 -28 -13 -37 -14 -50 -3 -17 14 -20 62 -5 90 8 15 6 21 -9 30
-26 13 -31 13 -31 -3 0 -20 -43 -57 -67 -57 -31 0 -45 24 -41 72 3 38 0 43
-19 46 -15 2 -23 -2 -23 -11 0 -22 -40 -67 -60 -67 -27 0 -43 26 -43 70 0 35
-3 40 -22 40 -17 0 -25 -8 -30 -27 -8 -33 -33 -63 -51 -63 -19 0 -54 49 -54
76 0 19 -5 24 -25 24 -21 0 -25 -5 -25 -28z m231 -176 c150 -32 252 -121 233
-204 -25 -107 -184 -208 -441 -279 -89 -25 -114 -28 -273 -28 -173 0 -176 0
-233 29 -118 57 -127 155 -26 271 73 83 253 178 394 208 90 20 261 21 346 3z
m388 -292 c12 -15 21 -34 21 -44 0 -10 -9 -29 -21 -44 -42 -53 -129 -23 -129
46 0 44 25 68 71 68 29 0 42 -6 58 -26z m151 -184 c125 -89 138 -422 26 -664
-89 -193 -238 -336 -351 -336 -46 0 -98 47 -122 108 -24 63 -23 226 1 342 46
217 160 448 258 522 83 63 129 70 188 28z m-1317 -60 c34 -27 41 -53 23 -88
-24 -47 -66 -55 -110 -21 -34 27 -35 71 -1 104 29 30 54 31 88 5z m682 -79
c49 -22 99 -77 115 -126 34 -104 -41 -229 -154 -255 -94 -21 -203 47 -231 145
-46 160 120 305 270 236z m-683 -136 c129 -33 307 -169 433 -330 134 -171 200
-340 166 -427 -68 -173 -412 -65 -627 197 -186 227 -228 521 -81 564 44 13 46
13 109 -4z m808 -655 c28 -28 26 -75 -5 -105 -27 -28 -42 -30 -78 -14 -25 11
-47 47 -47 75 0 8 11 26 25 39 30 31 77 33 105 5z" />
  </g>
</svg>